<svg version="1.1" id="Layer_1" xmlns="http://www.w3.org/2000/svg" xmlns:xlink="http://www.w3.org/1999/xlink" x="0px" y="0px"
	 width="100%" viewBox="0 0 668 188" enable-background="new 0 0 668 188" xml:space="preserve">
<path fill="#020202" opacity="1.000000" stroke="none" 
	d="
M437.000000,189.000000 
	C291.333344,189.000000 146.166702,189.000000 1.000039,189.000000 
	C1.000026,126.333359 1.000026,63.666718 1.000013,1.000056 
	C223.666611,1.000037 446.333221,1.000037 668.999878,1.000019 
	C668.999878,63.666607 668.999878,126.333214 668.999939,188.999908 
	C591.833313,189.000000 514.666687,189.000000 437.000000,189.000000 
M109.829033,149.038712 
	C102.486359,149.652664 96.777489,153.482468 91.308327,158.062347 
	C84.321785,163.912933 77.120186,163.747086 70.020134,158.015121 
	C68.206924,156.551300 66.435249,155.011459 64.493729,153.736053 
	C59.867683,150.697083 54.898193,148.723282 49.005760,149.108292 
	C49.005760,152.299225 49.005760,155.070724 49.005760,156.871536 
	C53.397926,159.466934 57.523426,161.304245 60.940323,164.029877 
	C74.304161,174.690109 87.125824,174.831421 100.348381,164.070496 
	C109.585365,156.553146 115.700020,156.490173 124.743988,163.819229 
	C138.567078,175.021210 151.370544,174.786423 165.386795,163.480682 
	C168.124985,161.272034 171.601883,159.507767 175.012405,158.707016 
	C181.174179,157.260300 185.642715,161.157806 190.157120,164.739517 
	C202.575195,174.591949 215.544571,174.918915 227.399399,164.644272 
	C236.016922,157.175430 244.549255,156.428955 253.971619,164.531464 
	C266.097900,174.959152 279.596466,174.942551 291.540070,164.497253 
	C299.568970,157.475555 308.235413,156.235275 317.706085,164.395035 
	C330.038574,175.020508 343.128235,174.635727 355.778076,164.450348 
	C365.852936,156.338272 371.267853,156.317947 381.351318,164.354202 
	C394.589752,174.904922 407.986725,174.682281 420.659088,163.701019 
	C428.670013,156.759125 435.797394,156.618774 443.888000,163.243561 
	C458.352264,175.087143 470.955597,175.111893 485.236511,163.324783 
	C493.208496,156.744904 499.953247,156.912506 508.160217,163.206772 
	C512.067139,166.203171 516.326416,169.277710 520.926819,170.723846 
	C531.478455,174.040680 540.829163,170.943085 548.995605,163.546402 
	C556.590210,156.667740 563.858704,156.685272 571.808105,163.118454 
	C573.619141,164.584061 575.418335,166.089493 577.365906,167.356979 
	C587.666931,174.060776 599.827942,173.414963 609.540222,166.078583 
	C613.949951,162.747604 618.757751,159.943695 623.958069,156.523849 
	C623.958069,154.850555 623.958069,152.086563 623.958069,149.062363 
	C616.634033,148.778885 610.489258,151.226486 605.562622,155.980087 
	C596.541809,164.684052 587.358826,163.425842 579.054749,156.225327 
	C567.039062,145.806473 553.209778,146.363861 540.913452,156.477707 
	C531.383972,164.315826 525.642578,164.381393 516.145081,156.760498 
	C502.766418,146.025330 489.518951,146.127899 476.335724,157.068832 
	C467.832642,164.125565 461.248779,164.149170 452.698761,157.153519 
	C438.985443,145.933197 425.896851,145.985031 412.120209,157.314240 
	C404.019165,163.976105 397.283600,164.046524 389.254913,157.553177 
	C374.720001,145.797806 362.237946,145.806763 347.928009,157.582840 
	C340.198395,163.943771 333.271912,163.959488 325.429047,157.633926 
	C310.642975,145.708405 298.416443,145.765076 283.690308,157.827377 
	C276.415924,163.785919 269.262146,163.839264 261.977875,157.989059 
	C261.068726,157.258881 260.168030,156.518036 259.250916,155.798004 
	C247.311096,146.423752 233.516342,146.506485 221.674438,156.019913 
	C211.016083,164.582535 206.224579,164.577850 195.324753,155.994293 
	C183.033127,146.314697 169.549454,146.422821 157.428436,156.298141 
	C147.405014,164.464539 142.065872,164.547516 131.887909,156.300079 
	C125.671486,151.262772 118.828423,148.401611 109.829033,149.038712 
M74.709511,72.373154 
	C78.247391,64.280075 81.785263,56.187000 85.860847,46.863895 
	C94.638206,66.893715 102.769096,85.448311 110.899994,104.002907 
	C111.337746,103.920578 111.775490,103.838257 112.213242,103.755936 
	C120.571999,78.067307 128.930756,52.378674 137.321823,26.590782 
	C128.794357,25.198193 128.777527,25.192657 126.414085,32.381939 
	C122.098526,45.509323 117.813652,58.646801 113.495125,71.773209 
	C112.639061,74.375298 111.689240,76.946548 110.248459,81.055466 
	C101.909042,61.981216 94.177879,44.298180 85.870483,25.297159 
	C77.520973,44.352928 69.764282,62.055706 61.552635,80.796837 
	C60.519741,78.253944 59.888298,76.926514 59.432148,75.541351 
	C54.692463,61.148769 49.952503,46.756142 45.273857,32.343647 
	C42.978889,25.274033 43.036964,25.255180 34.459984,26.553431 
	C42.879715,52.459476 51.267693,78.267807 59.655666,104.076141 
	C60.053719,104.066772 60.451771,104.057411 60.849823,104.048042 
	C65.363731,93.720360 69.877647,83.392677 74.709511,72.373154 
M496.454010,93.449371 
	C496.454010,77.724876 496.454010,62.000389 496.454010,46.290054 
	C493.147614,46.290054 490.589050,46.290054 488.036072,46.290054 
	C487.765259,48.695599 487.535156,50.739769 487.205017,53.672230 
	C479.958954,48.083530 472.589142,45.209183 464.050049,45.909264 
	C455.442352,46.614971 448.426819,50.251095 443.008484,56.870319 
	C434.456146,67.318108 434.246918,82.172638 442.370850,92.953003 
	C446.407471,98.309578 451.662781,102.009750 458.098755,103.806656 
	C468.796082,106.793312 478.381866,104.075668 487.292023,96.657166 
	C487.604645,99.906059 487.822815,102.173721 488.054291,104.579346 
	C490.808228,104.579346 493.386719,104.579346 496.453583,104.579346 
	C496.453583,101.014915 496.453583,97.720825 496.454010,93.449371 
M147.910385,72.097672 
	C147.042297,83.470985 151.010635,92.840187 160.383072,99.301308 
	C173.389236,108.267426 186.258591,106.507530 198.877731,96.666122 
	C199.118439,99.929703 199.293167,102.298805 199.460129,104.562485 
	C202.449646,104.562485 204.876236,104.562485 207.405441,104.562485 
	C207.405441,84.915184 207.405441,65.575661 207.405441,46.191643 
	C204.571320,46.191643 202.139587,46.191643 199.432709,46.191643 
	C199.249466,48.649605 199.084396,50.863716 198.847778,54.037506 
	C189.352295,46.076809 179.100266,43.689484 168.118576,47.360508 
	C156.767548,51.155006 150.094498,59.422359 147.910385,72.097672 
M288.043823,73.665840 
	C288.291046,87.974968 295.908539,99.203972 308.231049,103.423927 
	C319.277679,107.206940 332.031860,104.025330 339.039246,95.298317 
	C337.353149,93.642670 335.612122,91.933083 333.988525,90.338799 
	C316.027496,100.726723 298.327026,95.027039 297.851349,78.796921 
	C314.299500,78.796921 330.740112,78.796921 347.733582,78.796921 
	C347.733582,76.292686 347.931763,74.165741 347.701752,72.086159 
	C346.076752,57.394424 333.920135,46.121334 319.615692,45.940781 
	C302.138733,45.720184 290.461151,55.665504 288.043823,73.665840 
M404.156219,95.925491 
	C389.799622,99.362587 375.354889,90.162796 370.285583,79.606796 
	C364.082458,66.689735 366.509644,52.057320 376.816101,42.494400 
	C388.411224,31.735765 401.374329,31.847292 421.024353,43.203308 
	C422.603302,41.570217 424.302124,39.813122 425.958740,38.099697 
	C413.733673,22.524141 386.599518,21.873003 370.969574,36.386539 
	C353.704376,52.418537 353.943787,78.972969 371.496460,94.830894 
	C387.243958,109.057907 414.127686,108.089844 425.522278,93.062721 
	C423.982544,91.123024 422.465088,89.211426 421.552734,88.062073 
	C415.386322,90.949966 410.181427,93.387550 404.156219,95.925491 
M588.485229,25.987240 
	C587.037354,26.072765 585.589539,26.158289 583.719971,26.268723 
	C583.719971,32.874340 583.719971,39.145496 583.719971,46.009995 
	C578.387329,46.009995 573.489258,46.009995 568.600220,46.009995 
	C568.600220,48.992607 568.600220,51.358147 568.600220,54.100677 
	C573.811096,54.100677 578.597046,54.100677 584.108215,54.100677 
	C584.108215,62.777878 583.379578,71.150970 584.252075,79.353775 
	C586.415710,99.696495 611.132751,111.952232 627.530090,101.213951 
	C625.007996,94.557182 625.007996,94.557167 618.302673,96.038124 
	C607.471985,98.430222 595.467407,92.160805 593.583862,81.352440 
	C592.057190,72.591988 593.274048,63.353432 593.274048,53.869190 
	C600.033936,53.869190 606.788330,53.869190 613.718384,53.869190 
	C613.718384,51.039715 613.718384,48.674061 613.718384,45.688984 
	C606.505981,45.688984 599.633850,45.688984 592.490051,45.688984 
	C592.490051,39.924553 592.417053,34.782097 592.522949,29.643324 
	C592.570862,27.319538 592.238464,25.632133 588.485229,25.987240 
M240.689621,90.896782 
	C242.952637,95.404449 245.215652,99.912117 248.030075,105.518150 
	C258.323639,85.015099 267.963104,65.814903 277.725800,46.369244 
	C268.670502,45.362698 268.670990,45.362942 265.147583,52.365131 
	C260.133881,62.329010 255.132172,72.298950 250.086700,82.246712 
	C249.546570,83.311623 248.749603,84.246277 247.727066,85.747444 
	C241.844269,74.076431 236.295563,63.096138 230.773331,52.102543 
	C227.237534,45.063564 227.255051,45.054768 218.302429,46.505505 
	C225.694702,61.186420 233.010590,75.715630 240.689621,90.896782 
M525.542236,47.907482 
	C522.396057,49.603840 519.249878,51.300198 515.799316,53.160633 
	C515.512573,50.573257 515.279724,48.472378 515.029297,46.212734 
	C512.258545,46.212734 509.669128,46.212734 507.062317,46.212734 
	C507.062317,65.862389 507.062317,85.222786 507.062317,104.640671 
	C509.937317,104.640671 512.394653,104.640671 514.757446,104.640671 
	C514.989502,104.125969 515.241821,103.825684 515.243896,103.523712 
	C515.308044,94.033112 515.254700,84.540749 515.416870,75.052040 
	C515.590515,64.885849 522.183594,57.091522 532.045959,54.668873 
	C539.708679,52.786556 546.028320,55.662212 552.261292,60.110382 
	C554.162476,58.304676 555.917480,56.637772 557.649780,54.992439 
	C550.523743,46.449596 538.729736,43.792732 525.542236,47.907482 
z"/>
<path fill="#F1F1F1" opacity="1.000000" stroke="none" 
	d="
M110.279655,149.012100 
	C118.828423,148.401611 125.671486,151.262772 131.887909,156.300079 
	C142.065872,164.547516 147.405014,164.464539 157.428436,156.298141 
	C169.549454,146.422821 183.033127,146.314697 195.324753,155.994293 
	C206.224579,164.577850 211.016083,164.582535 221.674438,156.019913 
	C233.516342,146.506485 247.311096,146.423752 259.250916,155.798004 
	C260.168030,156.518036 261.068726,157.258881 261.977875,157.989059 
	C269.262146,163.839264 276.415924,163.785919 283.690308,157.827377 
	C298.416443,145.765076 310.642975,145.708405 325.429047,157.633926 
	C333.271912,163.959488 340.198395,163.943771 347.928009,157.582840 
	C362.237946,145.806763 374.720001,145.797806 389.254913,157.553177 
	C397.283600,164.046524 404.019165,163.976105 412.120209,157.314240 
	C425.896851,145.985031 438.985443,145.933197 452.698761,157.153519 
	C461.248779,164.149170 467.832642,164.125565 476.335724,157.068832 
	C489.518951,146.127899 502.766418,146.025330 516.145081,156.760498 
	C525.642578,164.381393 531.383972,164.315826 540.913452,156.477707 
	C553.209778,146.363861 567.039062,145.806473 579.054749,156.225327 
	C587.358826,163.425842 596.541809,164.684052 605.562622,155.980087 
	C610.489258,151.226486 616.634033,148.778885 623.958069,149.062363 
	C623.958069,152.086563 623.958069,154.850555 623.958069,156.523849 
	C618.757751,159.943695 613.949951,162.747604 609.540222,166.078583 
	C599.827942,173.414963 587.666931,174.060776 577.365906,167.356979 
	C575.418335,166.089493 573.619141,164.584061 571.808105,163.118454 
	C563.858704,156.685272 556.590210,156.667740 548.995605,163.546402 
	C540.829163,170.943085 531.478455,174.040680 520.926819,170.723846 
	C516.326416,169.277710 512.067139,166.203171 508.160217,163.206772 
	C499.953247,156.912506 493.208496,156.744904 485.236511,163.324783 
	C470.955597,175.111893 458.352264,175.087143 443.888000,163.243561 
	C435.797394,156.618774 428.670013,156.759125 420.659088,163.701019 
	C407.986725,174.682281 394.589752,174.904922 381.351318,164.354202 
	C371.267853,156.317947 365.852936,156.338272 355.778076,164.450348 
	C343.128235,174.635727 330.038574,175.020508 317.706085,164.395035 
	C308.235413,156.235275 299.568970,157.475555 291.540070,164.497253 
	C279.596466,174.942551 266.097900,174.959152 253.971619,164.531464 
	C244.549255,156.428955 236.016922,157.175430 227.399399,164.644272 
	C215.544571,174.918915 202.575195,174.591949 190.157120,164.739517 
	C185.642715,161.157806 181.174179,157.260300 175.012405,158.707016 
	C171.601883,159.507767 168.124985,161.272034 165.386795,163.480682 
	C151.370544,174.786423 138.567078,175.021210 124.743988,163.819229 
	C115.700020,156.490173 109.585365,156.553146 100.348381,164.070496 
	C87.125824,174.831421 74.304161,174.690109 60.940323,164.029877 
	C57.523426,161.304245 53.397926,159.466934 49.005760,156.871536 
	C49.005760,155.070724 49.005760,152.299225 49.005760,149.108292 
	C54.898193,148.723282 59.867683,150.697083 64.493729,153.736053 
	C66.435249,155.011459 68.206924,156.551300 70.020134,158.015121 
	C77.120186,163.747086 84.321785,163.912933 91.308327,158.062347 
	C96.777489,153.482468 102.486359,149.652664 110.279655,149.012100 
z"/>
<path fill="#ECECEC" opacity="1.000000" stroke="none" 
	d="
M74.550537,72.719070 
	C69.877647,83.392677 65.363731,93.720360 60.849823,104.048042 
	C60.451771,104.057411 60.053719,104.066772 59.655666,104.076141 
	C51.267693,78.267807 42.879715,52.459476 34.459984,26.553431 
	C43.036964,25.255180 42.978889,25.274033 45.273857,32.343647 
	C49.952503,46.756142 54.692463,61.148769 59.432148,75.541351 
	C59.888298,76.926514 60.519741,78.253944 61.552635,80.796837 
	C69.764282,62.055706 77.520973,44.352928 85.870483,25.297159 
	C94.177879,44.298180 101.909042,61.981216 110.248459,81.055466 
	C111.689240,76.946548 112.639061,74.375298 113.495125,71.773209 
	C117.813652,58.646801 122.098526,45.509323 126.414085,32.381939 
	C128.777527,25.192657 128.794357,25.198193 137.321823,26.590782 
	C128.930756,52.378674 120.571999,78.067307 112.213242,103.755936 
	C111.775490,103.838257 111.337746,103.920578 110.899994,104.002907 
	C102.769096,85.448311 94.638206,66.893715 85.860847,46.863895 
	C81.785263,56.187000 78.247391,64.280075 74.550537,72.719070 
z"/>
<path fill="#F0F0F0" opacity="1.000000" stroke="none" 
	d="
M496.453796,93.938049 
	C496.453583,97.720825 496.453583,101.014915 496.453583,104.579346 
	C493.386719,104.579346 490.808228,104.579346 488.054291,104.579346 
	C487.822815,102.173721 487.604645,99.906059 487.292023,96.657166 
	C478.381866,104.075668 468.796082,106.793312 458.098755,103.806656 
	C451.662781,102.009750 446.407471,98.309578 442.370850,92.953003 
	C434.246918,82.172638 434.456146,67.318108 443.008484,56.870319 
	C448.426819,50.251095 455.442352,46.614971 464.050049,45.909264 
	C472.589142,45.209183 479.958954,48.083530 487.205017,53.672230 
	C487.535156,50.739769 487.765259,48.695599 488.036072,46.290054 
	C490.589050,46.290054 493.147614,46.290054 496.454010,46.290054 
	C496.454010,62.000389 496.454010,77.724876 496.453796,93.938049 
M487.624603,77.916679 
	C487.665558,76.920341 487.755219,75.923256 487.740082,74.927773 
	C487.562653,63.238663 477.675690,53.659168 466.140564,53.983662 
	C454.188202,54.319889 444.729401,64.237961 445.088196,76.058266 
	C445.412231,86.733467 453.896240,95.503548 465.090820,96.735298 
	C475.106934,97.837387 484.651245,90.179268 487.624603,77.916679 
z"/>
<path fill="#EDEDED" opacity="1.000000" stroke="none" 
	d="
M147.955750,71.686546 
	C150.094498,59.422359 156.767548,51.155006 168.118576,47.360508 
	C179.100266,43.689484 189.352295,46.076809 198.847778,54.037506 
	C199.084396,50.863716 199.249466,48.649605 199.432709,46.191643 
	C202.139587,46.191643 204.571320,46.191643 207.405441,46.191643 
	C207.405441,65.575661 207.405441,84.915184 207.405441,104.562485 
	C204.876236,104.562485 202.449646,104.562485 199.460129,104.562485 
	C199.293167,102.298805 199.118439,99.929703 198.877731,96.666122 
	C186.258591,106.507530 173.389236,108.267426 160.383072,99.301308 
	C151.010635,92.840187 147.042297,83.470985 147.955750,71.686546 
M164.048035,91.514999 
	C173.930161,98.817818 184.961075,98.316147 192.899277,90.202881 
	C200.477692,82.457382 201.269684,70.672585 194.763794,62.459244 
	C186.945862,52.589535 173.070404,51.194237 163.803802,59.345966 
	C154.090378,67.890755 153.967880,81.080856 164.048035,91.514999 
z"/>
<path fill="#F1F1F1" opacity="1.000000" stroke="none" 
	d="
M288.075195,73.220825 
	C290.461151,55.665504 302.138733,45.720184 319.615692,45.940781 
	C333.920135,46.121334 346.076752,57.394424 347.701752,72.086159 
	C347.931763,74.165741 347.733582,76.292686 347.733582,78.796921 
	C330.740112,78.796921 314.299500,78.796921 297.851349,78.796921 
	C298.327026,95.027039 316.027496,100.726723 333.988525,90.338799 
	C335.612122,91.933083 337.353149,93.642670 339.039246,95.298317 
	C332.031860,104.025330 319.277679,107.206940 308.231049,103.423927 
	C295.908539,99.203972 288.291046,87.974968 288.075195,73.220825 
M304.981506,58.370029 
	C300.909424,61.465698 298.156464,65.333221 297.232727,70.652794 
	C311.378998,70.652794 324.938995,70.652794 338.540894,70.652794 
	C335.910645,55.933777 319.355621,49.674362 304.981506,58.370029 
z"/>
<path fill="#EEEEEE" opacity="1.000000" stroke="none" 
	d="
M404.566376,95.875320 
	C410.181427,93.387550 415.386322,90.949966 421.552734,88.062073 
	C422.465088,89.211426 423.982544,91.123024 425.522278,93.062721 
	C414.127686,108.089844 387.243958,109.057907 371.496460,94.830894 
	C353.943787,78.972969 353.704376,52.418537 370.969574,36.386539 
	C386.599518,21.873003 413.733673,22.524141 425.958740,38.099697 
	C424.302124,39.813122 422.603302,41.570217 421.024353,43.203308 
	C401.374329,31.847292 388.411224,31.735765 376.816101,42.494400 
	C366.509644,52.057320 364.082458,66.689735 370.285583,79.606796 
	C375.354889,90.162796 389.799622,99.362587 404.566376,95.875320 
z"/>
<path fill="#F0F0F0" opacity="1.000000" stroke="none" 
	d="
M588.922363,25.983845 
	C592.238464,25.632133 592.570862,27.319538 592.522949,29.643324 
	C592.417053,34.782097 592.490051,39.924553 592.490051,45.688984 
	C599.633850,45.688984 606.505981,45.688984 613.718384,45.688984 
	C613.718384,48.674061 613.718384,51.039715 613.718384,53.869190 
	C606.788330,53.869190 600.033936,53.869190 593.274048,53.869190 
	C593.274048,63.353432 592.057190,72.591988 593.583862,81.352440 
	C595.467407,92.160805 607.471985,98.430222 618.302673,96.038124 
	C625.007996,94.557167 625.007996,94.557182 627.530090,101.213951 
	C611.132751,111.952232 586.415710,99.696495 584.252075,79.353775 
	C583.379578,71.150970 584.108215,62.777878 584.108215,54.100677 
	C578.597046,54.100677 573.811096,54.100677 568.600220,54.100677 
	C568.600220,51.358147 568.600220,48.992607 568.600220,46.009995 
	C573.489258,46.009995 578.387329,46.009995 583.719971,46.009995 
	C583.719971,39.145496 583.719971,32.874340 583.719971,26.268723 
	C585.589539,26.158289 587.037354,26.072765 588.922363,25.983845 
z"/>
<path fill="#EBEBEB" opacity="1.000000" stroke="none" 
	d="
M240.508057,90.570808 
	C233.010590,75.715630 225.694702,61.186420 218.302429,46.505505 
	C227.255051,45.054768 227.237534,45.063564 230.773331,52.102543 
	C236.295563,63.096138 241.844269,74.076431 247.727066,85.747444 
	C248.749603,84.246277 249.546570,83.311623 250.086700,82.246712 
	C255.132172,72.298950 260.133881,62.329010 265.147583,52.365131 
	C268.670990,45.362942 268.670502,45.362698 277.725800,46.369244 
	C267.963104,65.814903 258.323639,85.015099 248.030075,105.518150 
	C245.215652,99.912117 242.952637,95.404449 240.508057,90.570808 
z"/>
<path fill="#F0F0F0" opacity="1.000000" stroke="none" 
	d="
M525.918518,47.772717 
	C538.729736,43.792732 550.523743,46.449596 557.649780,54.992439 
	C555.917480,56.637772 554.162476,58.304676 552.261292,60.110382 
	C546.028320,55.662212 539.708679,52.786556 532.045959,54.668873 
	C522.183594,57.091522 515.590515,64.885849 515.416870,75.052040 
	C515.254700,84.540749 515.308044,94.033112 515.243896,103.523712 
	C515.241821,103.825684 514.989502,104.125969 514.757446,104.640671 
	C512.394653,104.640671 509.937317,104.640671 507.062317,104.640671 
	C507.062317,85.222786 507.062317,65.862389 507.062317,46.212734 
	C509.669128,46.212734 512.258545,46.212734 515.029297,46.212734 
	C515.279724,48.472378 515.512573,50.573257 515.799316,53.160633 
	C519.249878,51.300198 522.396057,49.603840 525.918518,47.772717 
z"/>
<path fill="#070707" opacity="1.000000" stroke="none" 
	d="
M487.574249,78.326126 
	C484.651245,90.179268 475.106934,97.837387 465.090820,96.735298 
	C453.896240,95.503548 445.412231,86.733467 445.088196,76.058266 
	C444.729401,64.237961 454.188202,54.319889 466.140564,53.983662 
	C477.675690,53.659168 487.562653,63.238663 487.740082,74.927773 
	C487.755219,75.923256 487.665558,76.920341 487.574249,78.326126 
z"/>
<path fill="#070707" opacity="1.000000" stroke="none" 
	d="
M163.778839,91.267136 
	C153.967880,81.080856 154.090378,67.890755 163.803802,59.345966 
	C173.070404,51.194237 186.945862,52.589535 194.763794,62.459244 
	C201.269684,70.672585 200.477692,82.457382 192.899277,90.202881 
	C184.961075,98.316147 173.930161,98.817818 163.778839,91.267136 
z"/>
<path fill="#0A0A0A" opacity="1.000000" stroke="none" 
	d="
M305.288635,58.167381 
	C319.355621,49.674362 335.910645,55.933777 338.540894,70.652794 
	C324.938995,70.652794 311.378998,70.652794 297.232727,70.652794 
	C298.156464,65.333221 300.909424,61.465698 305.288635,58.167381 
z"/>
</svg>